<svg width="208" height="62" viewBox="0 0 208 62" fill="currentColor" xmlns="http://www.w3.org/2000/svg"{% if include.class %} class="{{include.class}}"{% endif %}>
<path d="M0 29.72V1H16V7.44H7V11.9H15.66V18.35H7V23.27H16V29.72H0Z"/>
<path d="M19.61 29.72V1.00001H29.39C32.2989 0.869203 35.1941 1.47094 37.81 2.75001C41.88 5.07001 44.45 9.50001 44.45 15.36C44.45 24.83 38.86 29.72 29.89 29.72H19.61ZM30.24 23.27C34.47 23.27 37.11 20.64 37.11 15.4C37.11 10.16 34.51 7.40001 30.28 7.40001H26.94V23.27H30.24Z"/>
<path d="M19.61 60.83V32.11H26.94V54.38H35.44V60.83H19.61Z"/>
<path d="M56.57 60.83L55.17 56.67H45.17L43.65 60.83H35.81L47.33 32.11H53.11L64.52 60.83H56.57ZM50.28 41.07H50.17L47.17 50.89H53.17L50.28 41.07Z"/>
<path d="M67.75 60.83V38.55H62.08V32.11H80.71V38.55H75.08V60.83H67.75Z"/>
<path d="M82.21 60.83V32.11H89.55V60.83H82.21Z"/>
<path d="M116.33 60.83L116.57 39.33L116.49 39.25L110.36 60.83H105.51L99.3 39.05L99.53 60.83H92.78V32.11H102.21L107.91 51.01H108L113.63 32.11H123.1V60.83H116.33Z"/>
<path d="M126 47.13C126 38.24 132.4 31.56 141.13 31.56C143.116 31.4908 145.095 31.8192 146.952 32.526C148.809 33.2327 150.506 34.3035 151.944 35.6754C153.381 37.0473 154.53 38.6927 155.322 40.5148C156.115 42.3369 156.535 44.2991 156.558 46.2859C156.581 48.2728 156.207 50.2442 155.458 52.0844C154.709 53.9247 153.599 55.5966 152.194 57.0018C150.789 58.4071 149.118 59.5175 147.278 60.2676C145.438 61.0177 143.467 61.3925 141.48 61.37C133.51 61.37 126 55.63 126 47.13ZM149 46.51C149 42 145.78 38.01 141.16 38.01C136.54 38.01 133.36 41.85 133.36 46.39C133.36 51.12 136.58 54.93 141.28 54.93C145.81 54.93 149 51.08 149 46.51V46.51Z"/>
<path d="M173 60.83L166.36 51.55H166.28V60.83H159.28V32.11H168.67C170.977 31.9969 173.284 32.3366 175.46 33.11C177.098 33.9284 178.464 35.2031 179.394 36.7805C180.324 38.3579 180.777 40.1706 180.7 42C180.7 46.54 177.98 50.27 173.56 51L181.36 60.78L173 60.83ZM169 46.54C171.91 46.54 173.69 45.19 173.69 42.43C173.69 39.95 171.83 38.55 169.08 38.55H166.28V46.55L169 46.54Z"/>
<path d="M183.64 60.83V32.11H199.58V38.55H190.66V43H199.31V49.44H190.66V54.37H199.58V60.82L183.64 60.83Z"/>
<path d="M202.83 60.83V58.38H202.19V58.09H203.82V58.38H203.17V60.83H202.83ZM206.83 60.83V58.53L205.83 60.83H205.55L204.55 58.54V60.83H204.21V58.09H204.69L205.69 60.34L206.69 58.09H207.18V60.83H206.83Z"/>
</svg>
