<svg xmlns="http://www.w3.org/2000/svg" viewBox="0 0 207.16 60.37" fill="currentColor"{% if class %} class="{{class}}"{% endif%}><path d="M0,28.72V0H16V6.44H7V10.9h8.66v6.45H7v4.92H16v6.45Z"/><path d="M19.61,28.72V0h9.78a17.39,17.39,0,0,1,8.42,1.75c4.07,2.32,6.64,6.75,6.64,12.61,0,9.47-5.59,14.36-14.56,14.36Zm10.63-6.45c4.23,0,6.87-2.63,6.87-7.87s-2.6-8-6.83-8H26.94V22.27Z"/><path d="M19.61,59.83V31.11h7.33V53.38h8.5v6.45Z"/><path d="M56.57,59.83l-1.4-4.16h-10l-1.52,4.16H35.81L47.33,31.11h5.78L64.52,59.83ZM50.28,40.07l-.11,0-3,9.82h6Z"/><path d="M67.75,59.83V37.55H62.08V31.11H80.71v6.44H75.08V59.83Z"/><path d="M82.21,59.83V31.11h7.34V59.83Z"/><path d="M116.33,59.83l.24-21.5-.08-.08-6.13,21.58h-4.85L99.3,38.05l.23,21.78H92.78V31.11h9.43l5.7,18.9H108l5.63-18.9h9.47V59.83Z"/><path d="M126,46.13c0-8.89,6.4-15.57,15.13-15.57a14.91,14.91,0,1,1,.35,29.81C133.51,60.37,126,54.63,126,46.13Zm23-.62c0-4.51-3.22-8.5-7.84-8.5s-7.8,3.84-7.8,8.38c0,4.73,3.22,8.54,7.92,8.54C145.81,53.93,149,50.08,149,45.51Z"/><path d="M173,59.83l-6.64-9.28h-.08v9.28h-7V31.11h9.39a17.69,17.69,0,0,1,6.79,1A9.49,9.49,0,0,1,180.7,41c0,4.54-2.72,8.27-7.14,9l7.8,9.78Zm-4-14.29c2.91,0,4.69-1.35,4.69-4.11,0-2.48-1.86-3.88-4.61-3.88h-2.8v8Z"/><path d="M183.64,59.83V31.11h15.94v6.44h-8.92V42h8.65v6.44h-8.65v4.93h8.92v6.45Z"/><path d="M202.83,59.83V57.38h-.64v-.29h1.63v.29h-.65v2.45Zm4,0v-2.3h0l-1,2.3h-.28l-1-2.29h0v2.29h-.34V57.09h.48l1,2.25,1-2.25h.49v2.74Z"/></svg>