<svg width="16" height="16" viewBox="0 0 16 16" fill="none" xmlns="http://www.w3.org/2000/svg">
<path d="M8 1.33333C11.676 1.33333 14.6667 4.324 14.6667 8C14.6667 11.676 11.676 14.6667 8 14.6667C4.324 14.6667 1.33333 11.676 1.33333 8C1.33333 4.324 4.324 1.33333 8 1.33333ZM8 0C3.582 0 0 3.582 0 8C0 12.418 3.582 16 8 16C12.418 16 16 12.418 16 8C16 3.582 12.418 0 8 0ZM12 10.7293L9.22867 7.99333L11.962 5.23267L10.7293 4L7.99267 6.77267L5.222 4.038L4 5.26067L6.774 8.00733L4.038 10.7787L5.26067 12L8.006 9.22733L10.768 11.962L12 10.7293Z" fill="#050B0D" fill-opacity="0.35"/>
</svg>
