<?xml version="1.0" encoding="utf-8"?>
<!-- Generator: Adobe Illustrator 25.2.0, SVG Export Plug-In . SVG Version: 6.00 Build 0)  -->
<svg version="1.1"
	 id="Layer_1" inkscape:version="0.91 r13725" sodipodi:docname="maximlogo.svg" xmlns:cc="http://creativecommons.org/ns#" xmlns:dc="http://purl.org/dc/elements/1.1/" xmlns:inkscape="http://www.inkscape.org/namespaces/inkscape" xmlns:rdf="http://www.w3.org/1999/02/22-rdf-syntax-ns#" xmlns:sodipodi="http://sodipodi.sourceforge.net/DTD/sodipodi-0.dtd" xmlns:svg="http://www.w3.org/2000/svg"
	 xmlns="http://www.w3.org/2000/svg" xmlns:xlink="http://www.w3.org/1999/xlink" x="0px" y="0px" viewBox="0 0 486.9 105.1"
	 style="enable-background:new 0 0 486.9 105.1;" xml:space="preserve">
<path id="path3337" inkscape:connector-curvature="0" d="M396.6,105.1h-27.3v-0.7c6.9-2.6,10.8-4.6,10.8-13.3v-66
	c0-12.9-1.3-16.7-10.2-21.3V3.1h25.2L428.4,82l32.9-78.9h24.6v0.7c-9.1,4.6-10.5,8.4-10.5,21.3v66c0,8.2,2.9,10.8,11.5,13.3v0.7
	h-37.3v-0.7c8-2.6,10.9-5.1,10.9-13.3V18.9l-37.3,85.3h-1.5l-37-86.7l0.7,73.7c0.2,8.7,3.8,10.9,11.3,13.3L396.6,105.1L396.6,105.1z
	 M320.9,3.8V3.1h36.2v0.7c-9.6,2.8-10.3,5.1-10.3,22.7v55c0,17.8,0.5,20,10.3,22.9v0.7h-36.2v-0.7c9.8-2.9,10.3-5.1,10.3-22.9v-55
	C331.3,8.9,330.6,6.6,320.9,3.8z M246.2,105.1H221v-0.7c6.4-2.3,8.5-5.1,14-13.1l24.2-34.9l-23.6-38.6c-4.7-7.7-8.2-10.5-16.4-14
	V3.1h39.6v0.7c-8.9,2.3-10.5,4.6-5.1,13.4l15.9,26l16-26.4c5.3-8.5,4.9-11.1-5.4-13.1V3.1h27.1v0.7c-6.9,2.3-9.8,4.7-15.4,13.1
	l-20.4,29.6l27.3,44.4c4.6,7.5,8.5,10.5,16.2,13.4v0.7h-39.8v-0.7c9.5-2.3,10.9-4.2,5.3-13.4l-19.3-31.3l-20.1,31.7
	c-5.3,8.4-5.3,11.1,5.1,13.1L246.2,105.1L246.2,105.1L246.2,105.1z M165.2,24.9L151,65.5h29.1L165.2,24.9L165.2,24.9z M27.3,105.1H0
	v-0.7c6.9-2.6,10.8-4.6,10.8-13.3v-66c0-12.9-1.3-16.7-10.2-21.3V3.1h25.2L59.1,82L92,3.1h24.6v0.7c-9.1,4.6-10.5,8.4-10.5,21.3v66
	c0,8.2,2.9,10.8,11.5,13.3v0.7H80.3v-0.7c8-2.6,10.9-5.1,10.9-13.3V18.9l-37.3,85.4h-1.5L15.3,17.5L16,91.2
	c0.2,8.7,3.8,10.9,11.3,13.3L27.3,105.1C27.3,105.1,27.3,105.1,27.3,105.1z M149.7,105.1h-26.2v-0.7c7.1-1.8,9.3-3.8,12.9-13.4
	l33.9-91h1.5l34,90.2c3.3,8.5,4.7,12.1,10.9,14.2v0.7h-35.1v-0.7c10-2.2,11.6-3.8,8-13.4l-8-21.5h-32.1L142,91
	c-3.4,9.6-2.2,11.3,7.7,13.4L149.7,105.1L149.7,105.1z"/>
</svg>
